# xmcd
# 
# Track frame offsets:
#     150
#     16115
#     30280
#     44015
#     59390
#     75892
#     92997
#     104150
#     118927
#     135457
#     146110
#     159117
#     174432
#     189380
#     203960
#     217587
#     235250
#     246585
#     260250
#     276887
# 
# Disc length: 3857
# 
# Revision: 6
# Processed by: cddbd v1.5.2PL0 Copyright (c) Steve Scherf et al.
# Submitted via: fre:ac v1.0.31
# 
DISCID=140f0f14
DTITLE=Olivia Newton-John - Best Now
DYEAR=1996
DGENRE=Pop
TTITLE0=Have You Never been Mellow
TTITLE1=It's so Easy
TTITLE2=Follow Me
TTITLE3=Please Mr. Please
TTITLE4=I Honestly Love You
TTITLE5=Me and Bobby McGee
TTITLE6=If
TTITLE7=Bank of the Ohio
TTITLE8=Love Song
TTITLE9=Help Me Make it Through the Night
TTITLE10=If not for You
TTITLE11=What is Life
TTITLE12=Take Me Home Country Roads
TTITLE13=If You Love Me (Let Me Know)
TTITLE14=Let Me be There
TTITLE15=Angel of the Morning
TTITLE16=Changes
TTITLE17=Everything I Own
TTITLE18=If You Could Read My Mind
TTITLE19=Long Live Love
EXTD=
EXTT0=
EXTT1=
EXTT2=
EXTT3=
EXTT4=
EXTT5=
EXTT6=
EXTT7=
EXTT8=
EXTT9=
EXTT10=
EXTT11=
EXTT12=
EXTT13=
EXTT14=
EXTT15=
EXTT16=
EXTT17=
EXTT18=
EXTT19=
PLAYORDER=
